<?xml version="1.0" standalone="no"?>
<!DOCTYPE svg PUBLIC "-//W3C//DTD SVG 20010904//EN"
 "http://www.w3.org/TR/2001/REC-SVG-20010904/DTD/svg10.dtd">
<svg version="1.0" xmlns="http://www.w3.org/2000/svg"
 width="212.000000pt" height="212.000000pt" viewBox="0 0 212.000000 212.000000"
 preserveAspectRatio="xMidYMid meet">
<metadata>
Created by potrace 1.14, written by Peter Selinger 2001-2017
</metadata>
<g transform="translate(0.000000,212.000000) scale(0.100000,-0.100000)"
fill="#000000" stroke="none">
<path d="M985 1978 c-109 -271 -134 -364 -128 -474 5 -98 32 -167 155 -385
136 -244 142 -257 121 -295 -38 -75 -136 -76 -168 -1 -14 34 -11 66 10 108 15
27 14 28 -29 52 l-44 25 -22 -59 c-26 -69 -28 -111 -6 -164 67 -161 313 -147
355 20 21 83 11 109 -142 380 -118 208 -130 239 -130 345 0 91 16 160 59 254
32 70 39 66 85 -42 30 -69 33 -87 33 -177 1 -55 -3 -124 -7 -152 -8 -52 -8
-53 25 -73 43 -26 45 -26 58 14 17 54 21 77 26 156 5 106 -9 175 -71 330 -29
74 -61 156 -70 181 -9 25 -25 58 -34 73 l-18 27 -58 -143z"/>
<path d="M260 1669 c0 -20 93 -247 132 -322 55 -106 131 -183 222 -226 71 -33
244 -83 259 -74 13 8 0 95 -24 165 -65 193 -153 284 -359 370 -197 83 -230 96
-230 87z m285 -194 c98 -47 199 -178 220 -284 l7 -34 -38 7 c-68 13 -143 53
-192 105 -49 51 -107 156 -119 213 l-6 31 39 -7 c21 -4 62 -18 89 -31z"/>
<path d="M1710 1620 c-182 -75 -250 -113 -314 -175 -79 -75 -145 -219 -161
-350 l-7 -56 28 7 c264 63 354 117 441 262 41 70 157 346 151 360 -2 4 -64
-17 -138 -48z m-24 -141 c-10 -54 -70 -160 -116 -209 -51 -54 -129 -97 -190
-105 l-42 -5 7 32 c25 125 140 259 258 299 78 27 91 25 83 -12z"/>
<path d="M410 979 c-90 -15 -265 -98 -257 -122 2 -6 37 -28 78 -49 202 -101
393 -93 542 25 l39 30 -63 40 c-110 70 -224 96 -339 76z m167 -78 c22 -6 51
-19 63 -29 l23 -18 -39 -20 c-55 -27 -182 -26 -244 2 l-44 20 36 22 c37 23
105 40 143 36 11 -1 39 -7 62 -13z"/>
<path d="M1525 976 c-61 -15 -177 -71 -202 -98 -17 -19 -17 -21 12 -45 75 -61
174 -94 280 -94 66 0 82 3 164 26 54 16 175 77 185 94 6 10 -132 83 -198 106
-64 21 -177 26 -241 11z m150 -72 c39 -8 99 -44 88 -54 -19 -17 -111 -40 -160
-40 -56 0 -157 35 -147 51 8 14 74 42 113 49 36 7 50 6 106 -6z"/>
<path d="M778 641 c-115 -37 -183 -103 -224 -218 -36 -102 -35 -105 27 -87
175 52 255 133 283 287 8 44 1 46 -86 18z m-15 -134 c-18 -31 -107 -86 -119
-74 -11 11 17 74 45 101 15 15 41 30 57 35 24 6 30 4 32 -11 2 -10 -5 -33 -15
-51z"/>
<path d="M1246 623 c28 -153 108 -235 283 -287 l53 -16 -7 37 c-30 163 -136
268 -298 297 l-38 7 7 -38z m181 -97 c30 -32 52 -81 41 -92 -7 -7 -69 17 -91
35 -24 20 -47 64 -47 90 0 17 4 19 33 10 17 -5 46 -24 64 -43z"/>
<path d="M1017 558 c-76 -102 -97 -221 -62 -360 16 -64 72 -179 91 -185 14 -5
63 82 89 161 29 86 28 205 0 276 -24 57 -74 140 -85 140 -5 0 -20 -15 -33 -32z
m65 -183 c20 -53 15 -122 -12 -176 -21 -40 -23 -42 -36 -25 -35 48 -39 161 -8
235 12 30 16 33 28 20 7 -8 20 -32 28 -54z"/>
</g>
</svg>
