<svg xmlns="http://www.w3.org/2000/svg" width="195.481" height="133.551" viewBox="0 0 195.481 133.551">
  <g id="Group_2056" data-name="Group 2056" transform="translate(-254.369 -73.665)">
    <g id="Group_1324" data-name="Group 1324" transform="translate(254.369 185.156)">
      <g id="Group_1322" data-name="Group 1322" transform="translate(0 0)">
        <path id="Path_284" data-name="Path 284" d="M268.56,355.915a4.953,4.953,0,0,0-2.136-1.688,7.79,7.79,0,0,0-3.033-.642,6.441,6.441,0,0,0-3.5.852,2.62,2.62,0,0,0-1.345,2.315,2.089,2.089,0,0,0,1.3,2,13.473,13.473,0,0,0,3.779.986,27.034,27.034,0,0,1,3.167.627,12.005,12.005,0,0,1,2.6,1.06,4.831,4.831,0,0,1,1.957,1.912,5.852,5.852,0,0,1,.672,2.883,5.485,5.485,0,0,1-1.3,3.735,7.033,7.033,0,0,1-3.167,2.106,13.437,13.437,0,0,1-4.2.612q-6.423,0-8.993-4.75l2.51-1.673a7,7,0,0,0,6.513,3.436,9.871,9.871,0,0,0,2.51-.3,4.247,4.247,0,0,0,1.957-1.12,2.778,2.778,0,0,0,.822-2.047,2.5,2.5,0,0,0-1.419-2.345,11.651,11.651,0,0,0-3.928-1.091,24.7,24.7,0,0,1-2.465-.418,15.478,15.478,0,0,1-2.166-.687,6.1,6.1,0,0,1-1.837-1.076,4.912,4.912,0,0,1-1.165-1.628,5.386,5.386,0,0,1-.463-2.286,5.193,5.193,0,0,1,2.629-4.631,9.99,9.99,0,0,1,2.569-1.031,11.784,11.784,0,0,1,2.868-.343q5.587,0,7.8,3.525Z" transform="translate(-254.369 -350.687)"/>
        <path id="Path_285" data-name="Path 285" d="M330.241,357.115,323.13,367h-.717l-7.021-9.889v16.043h-3.346V352.245h3.884l6.9,9.8,6.872-9.8h3.884v20.914h-3.346Z" transform="translate(-288.833 -351.618)"/>
        <path id="Path_286" data-name="Path 286" d="M398.505,354.418a11.333,11.333,0,0,1,2.779,7.723,12.3,12.3,0,0,1-.672,4.078,11.006,11.006,0,0,1-1.942,3.451,8.654,8.654,0,0,1-3.361,2.405,12.05,12.05,0,0,1-4.72.881,11.708,11.708,0,0,1-4.72-.911,8.914,8.914,0,0,1-3.361-2.435,11.075,11.075,0,0,1-1.942-3.421,11.94,11.94,0,0,1-.672-4.019,10.807,10.807,0,0,1,3.018-7.873,10.342,10.342,0,0,1,7.738-3.092A9.957,9.957,0,0,1,398.505,354.418Zm-14.834,10.546a8.067,8.067,0,0,0,1.3,2.45,6.114,6.114,0,0,0,2.315,1.793,7.757,7.757,0,0,0,3.3.672,6.825,6.825,0,0,0,5.527-2.2,8.209,8.209,0,0,0,1.853-5.482,9.572,9.572,0,0,0-.732-3.764,6.845,6.845,0,0,0-2.45-2.943,7.163,7.163,0,0,0-4.138-1.24,6.937,6.937,0,0,0-5.482,2.211,8.334,8.334,0,0,0-1.957,5.736A9.514,9.514,0,0,0,383.672,364.964Z" transform="translate(-329.374 -350.997)"/>
        <path id="Path_287" data-name="Path 287" d="M463.383,352.291l-9.591,9.979,10.427,10.606v.209h-4.183l-9.321-9.531v9.531h-3.346V352.171h3.346v9.023l8.515-9.023h4.153Z" transform="translate(-369.693 -351.574)"/>
        <path id="Path_288" data-name="Path 288" d="M515.37,373.085H499.924V352.171h15.357v3.257H503.27v5.647H514.8v3.107H503.27V369.8h12.1Z" transform="translate(-401.097 -351.574)"/>
      </g>
      <g id="Group_1323" data-name="Group 1323" transform="translate(129.63 0.749)">
        <path id="Path_289" data-name="Path 289" d="M586.049,352.547a8.283,8.283,0,0,1,5.139,1.494,5.266,5.266,0,0,1,1.972,4.481,4.209,4.209,0,0,1-2.9,4.153,4.5,4.5,0,0,1,2.644,1.957,5.343,5.343,0,0,1,.911,2.854,5.509,5.509,0,0,1-1.12,3.57,5.623,5.623,0,0,1-2.779,1.9,13.258,13.258,0,0,1-3.869.508h-9.59V352.547Zm-6.274,8.664h6.3a4.788,4.788,0,0,0,2.808-.687,2.251,2.251,0,0,0,.956-1.942,2.758,2.758,0,0,0-1.016-2.106,4.007,4.007,0,0,0-2.778-.911h-6.274Zm0,9.142h6.274a6.793,6.793,0,0,0,3.077-.672,2.3,2.3,0,0,0,1.344-2.226,2.681,2.681,0,0,0-1.374-2.405,5.616,5.616,0,0,0-3.017-.852h-6.3Z" transform="translate(-576.459 -352.547)" fill="#8cc63e"/>
        <path id="Path_290" data-name="Path 290" d="M651.14,352.621V364.84q0,4.452-2.569,6.827a8.746,8.746,0,0,1-6.543,2.226,8.9,8.9,0,0,1-6.169-2.45,8.709,8.709,0,0,1-2.465-6.6V352.621h3.316V364.84a6.068,6.068,0,0,0,1.464,4.333,5.341,5.341,0,0,0,3.854,1.643,5.227,5.227,0,0,0,4.183-1.449,6.088,6.088,0,0,0,1.613-4.527V352.621Z" transform="translate(-610.479 -352.591)" fill="#8cc63e"/>
        <path id="Path_291" data-name="Path 291" d="M702.254,352.547a11.738,11.738,0,0,1,4.616.867,8.536,8.536,0,0,1,3.286,2.345,10.888,10.888,0,0,1,1.9,3.271,11.42,11.42,0,0,1,.687,3.794,11.109,11.109,0,0,1-.568,3.9,10.748,10.748,0,0,1-1.867,3.391,8.653,8.653,0,0,1-3.331,2.435,11.708,11.708,0,0,1-4.721.911h-7.917V352.547Zm-4.6,17.687h4.6a6.622,6.622,0,0,0,5.407-2.2,7.7,7.7,0,0,0,1.763-5.243,8.707,8.707,0,0,0-.777-3.406,6.1,6.1,0,0,0-2.375-2.6,7.382,7.382,0,0,0-4.018-1.046h-4.6Z" transform="translate(-646.895 -352.547)" fill="#8cc63e"/>
      </g>
    </g>
    <g id="Group_1330" data-name="Group 1330" transform="translate(308.989 73.665)">
      <g id="Group_1329" data-name="Group 1329" transform="translate(0)">
        <g id="Group_1325" data-name="Group 1325" transform="translate(34.568)">
          <path id="Path_292" data-name="Path 292" d="M493.254,129.889c3.078,5.905.076,12.445-6.017,13.7a9.221,9.221,0,0,1-10.658-12.041,14.92,14.92,0,0,1,1.94-3.965l3.846,2.22c-.412.922-.865,1.822-1.2,2.764-.754,2.157-.572,4.188,1.4,5.626a4.291,4.291,0,0,0,5.507-.042,4.346,4.346,0,0,0,1.18-5.933c-3.057-5.605-6.136-11.21-9.416-16.7a26.079,26.079,0,0,1-2.346-22.469c2.1-6.338,4.816-12.48,7.524-19.39,2.08,2.68,2.632,5.207,3.483,7.5,2.422,6.484,6.1,12.613,6,19.872-.056,3.992-.363,7.9-2.164,11.489l-3.734-2.157c2.108-10.91,1.473-15.37-3.385-23.655-4.474,8.725-6.7,17.031-1.661,25.847C486.833,118.309,490.2,124.019,493.254,129.889Z" transform="translate(-475.972 -73.665)"/>
        </g>
        <g id="Group_1328" data-name="Group 1328" transform="translate(0 21.217)">
          <g id="Group_1326" data-name="Group 1326">
            <path id="Path_293" data-name="Path 293" d="M427.1,138.757c-6.247-6.694-14.965-8.383-23.439-12.375,8.076,21.38,9.974,27.006,30.161,30.865C434.451,152.725,430.8,142.722,427.1,138.757Zm-15.726-4.027c7.51-.593,16.982,8.551,17.22,16.864C420.358,151.084,414.327,145.1,411.375,134.73Z" transform="translate(-398.197 -126.382)" fill="#8cc63e"/>
            <path id="Path_294" data-name="Path 294" d="M390.082,215.82c11.5,8.055,24.6,7.985,32.248-.161C412.2,207.723,401.718,207.772,390.082,215.82Zm9.549.426c3.916-3.888,11.182-4.062,15.754-.209C409.9,219.694,404.845,218.7,399.631,216.246Z" transform="translate(-390.082 -176.195)" fill="#8cc63e"/>
            <path id="Path_295" data-name="Path 295" d="M436.787,265.2c11.831-3.246,15.258-6.519,16.424-16.494C443.251,250.176,438.225,255.292,436.787,265.2ZM442,260c.586-4.279,3.169-6.875,7.091-7.134C448.814,256.87,446.426,259.271,442,260Z" transform="translate(-417.99 -199.473)" fill="#8cc63e"/>
          </g>
          <g id="Group_1327" data-name="Group 1327" transform="translate(52.778)">
            <path id="Path_296" data-name="Path 296" d="M521.29,157.247c20.186-3.86,22.085-9.486,30.161-30.865-8.473,3.992-17.192,5.682-23.439,12.375C524.312,142.722,520.661,152.725,521.29,157.247Zm5.228-5.654c.237-8.313,9.709-17.457,17.22-16.864C540.785,145.1,534.754,151.084,526.518,151.594Z" transform="translate(-521.219 -126.382)" fill="#8cc63e"/>
            <path id="Path_297" data-name="Path 297" d="M529.789,215.659c7.643,8.146,20.752,8.215,32.248.161C550.4,207.772,539.917,207.723,529.789,215.659Zm6.945.377c4.572-3.853,11.838-3.679,15.754.209C547.274,218.7,542.221,219.694,536.734,216.037Z" transform="translate(-526.34 -176.195)" fill="#8cc63e"/>
            <path id="Path_298" data-name="Path 298" d="M522.4,248.7c1.166,9.975,4.593,13.248,16.424,16.494C537.387,255.292,532.362,250.176,522.4,248.7Zm4.118,4.16c3.922.258,6.505,2.855,7.091,7.134C529.186,259.271,526.8,256.87,526.519,252.863Z" transform="translate(-521.925 -199.473)" fill="#8cc63e"/>
          </g>
        </g>
      </g>
    </g>
    <g id="Group_1331" data-name="Group 1331" transform="translate(347.533 147.341)">
      <path id="Path_299" data-name="Path 299" d="M491.329,256.727c-7.246,6.8-7.308,18.468-.142,28.7C498.35,275.069,498.394,265.742,491.329,256.727Zm-.468,21.357c-2.186-4.64-3.067-9.134.185-14.017C494.475,268.134,494.32,274.6,490.862,278.084Z" transform="translate(-485.854 -256.727)" fill="#8cc63e"/>
    </g>
  </g>
</svg>
