<svg xmlns="http://www.w3.org/2000/svg" width="253.122" height="172.931" viewBox="0 0 253.122 172.931">
  <g id="Group_2056" data-name="Group 2056" transform="translate(-254.369 -73.665)">
    <g id="Group_1324" data-name="Group 1324" transform="translate(254.369 218.032)">
      <g id="Group_1322" data-name="Group 1322" transform="translate(0 0)">
        <path id="Path_284" data-name="Path 284" d="M272.745,357.457a6.413,6.413,0,0,0-2.766-2.186,10.086,10.086,0,0,0-3.927-.832,8.341,8.341,0,0,0-4.526,1.1,3.393,3.393,0,0,0-1.741,3,2.705,2.705,0,0,0,1.683,2.592,17.446,17.446,0,0,0,4.893,1.277,35.007,35.007,0,0,1,4.1.812,15.545,15.545,0,0,1,3.366,1.373,6.255,6.255,0,0,1,2.534,2.476,7.577,7.577,0,0,1,.87,3.733,7.1,7.1,0,0,1-1.683,4.836,9.106,9.106,0,0,1-4.1,2.728,17.4,17.4,0,0,1-5.435.793q-8.317,0-11.644-6.15l3.25-2.167q2.63,4.45,8.433,4.449a12.781,12.781,0,0,0,3.25-.387,5.5,5.5,0,0,0,2.534-1.451,3.6,3.6,0,0,0,1.064-2.65,3.233,3.233,0,0,0-1.838-3.037,15.086,15.086,0,0,0-5.087-1.412,31.988,31.988,0,0,1-3.191-.541,20.046,20.046,0,0,1-2.805-.89,7.9,7.9,0,0,1-2.379-1.393,6.361,6.361,0,0,1-1.509-2.109,6.975,6.975,0,0,1-.6-2.96,6.725,6.725,0,0,1,3.4-6,12.937,12.937,0,0,1,3.327-1.335,15.258,15.258,0,0,1,3.714-.445q7.235,0,10.1,4.565Z" transform="translate(-254.369 -350.687)" fill="#fff"/>
        <path id="Path_285" data-name="Path 285" d="M335.606,358.551l-9.208,12.8h-.928l-9.091-12.8v20.774h-4.333v-27.08h5.029l8.936,12.689,8.9-12.689h5.029v27.08h-4.333Z" transform="translate(-281.988 -351.433)" fill="#fff"/>
        <path id="Path_286" data-name="Path 286" d="M403.994,355.365a14.675,14.675,0,0,1,3.6,10,15.932,15.932,0,0,1-.87,5.281,14.25,14.25,0,0,1-2.515,4.468,11.206,11.206,0,0,1-4.352,3.114,15.6,15.6,0,0,1-6.112,1.141,15.161,15.161,0,0,1-6.112-1.18,11.543,11.543,0,0,1-4.352-3.153,14.341,14.341,0,0,1-2.515-4.429,15.462,15.462,0,0,1-.871-5.2A13.994,13.994,0,0,1,383.8,355.21a13.391,13.391,0,0,1,10.02-4Q400.4,351.245,403.994,355.365Zm-19.208,13.656a10.445,10.445,0,0,0,1.683,3.172,7.917,7.917,0,0,0,3,2.321,10.045,10.045,0,0,0,4.275.871q4.758,0,7.157-2.844a10.629,10.629,0,0,0,2.4-7.1,12.4,12.4,0,0,0-.948-4.874,8.864,8.864,0,0,0-3.172-3.811,9.275,9.275,0,0,0-5.358-1.606,8.983,8.983,0,0,0-7.1,2.863,10.791,10.791,0,0,0-2.534,7.428A12.321,12.321,0,0,0,384.786,369.021Z" transform="translate(-314.477 -350.936)" fill="#fff"/>
        <path id="Path_287" data-name="Path 287" d="M468.105,352.326l-12.419,12.921,13.5,13.733v.271h-5.416L451.7,366.91v12.341h-4.333v-27.08H451.7v11.683l11.026-11.683h5.378Z" transform="translate(-346.789 -351.398)" fill="#fff"/>
        <path id="Path_288" data-name="Path 288" d="M519.925,379.251h-20v-27.08h19.885v4.217H504.257V363.7H519.19v4.023H504.257V375h15.668Z" transform="translate(-371.956 -351.398)" fill="#fff"/>
      </g>
      <g id="Group_1323" data-name="Group 1323" transform="translate(167.853 0.969)">
        <path id="Path_289" data-name="Path 289" d="M588.877,352.547a10.726,10.726,0,0,1,6.654,1.934,6.818,6.818,0,0,1,2.553,5.8,5.451,5.451,0,0,1-3.753,5.377,5.828,5.828,0,0,1,3.424,2.534,6.917,6.917,0,0,1,1.18,3.695,7.133,7.133,0,0,1-1.45,4.623,7.28,7.28,0,0,1-3.6,2.457,17.168,17.168,0,0,1-5.01.658H576.459v-27.08Zm-8.125,11.219h8.163a6.2,6.2,0,0,0,3.637-.89,2.915,2.915,0,0,0,1.238-2.514,3.572,3.572,0,0,0-1.315-2.727,5.189,5.189,0,0,0-3.6-1.18h-8.125Zm0,11.838h8.125a8.8,8.8,0,0,0,3.985-.87,2.984,2.984,0,0,0,1.741-2.882,3.471,3.471,0,0,0-1.78-3.114,7.272,7.272,0,0,0-3.907-1.1h-8.163Z" transform="translate(-576.459 -352.547)" fill="#8cc63e"/>
        <path id="Path_290" data-name="Path 290" d="M656.373,352.621v15.822q0,5.764-3.327,8.84a11.325,11.325,0,0,1-8.473,2.883,11.523,11.523,0,0,1-7.989-3.172q-3.192-3.056-3.192-8.55V352.621h4.294v15.822a7.857,7.857,0,0,0,1.9,5.61,6.916,6.916,0,0,0,4.99,2.128,6.768,6.768,0,0,0,5.416-1.877,7.883,7.883,0,0,0,2.089-5.861V352.621Z" transform="translate(-603.722 -352.582)" fill="#8cc63e"/>
        <path id="Path_291" data-name="Path 291" d="M704.589,352.547a15.2,15.2,0,0,1,5.977,1.122,11.053,11.053,0,0,1,4.255,3.037,14.1,14.1,0,0,1,2.456,4.236,14.788,14.788,0,0,1,.89,4.913,14.383,14.383,0,0,1-.735,5.049,13.917,13.917,0,0,1-2.417,4.391,11.2,11.2,0,0,1-4.313,3.153,15.159,15.159,0,0,1-6.112,1.18H694.337v-27.08Zm-5.958,22.9h5.958q4.643,0,7-2.843a9.967,9.967,0,0,0,2.283-6.789,11.272,11.272,0,0,0-1.006-4.41,7.9,7.9,0,0,0-3.076-3.366,9.559,9.559,0,0,0-5.2-1.354h-5.958Z" transform="translate(-632.906 -352.547)" fill="#8cc63e"/>
      </g>
    </g>
    <g id="Group_1330" data-name="Group 1330" transform="translate(325.094 73.665)">
      <g id="Group_1329" data-name="Group 1329" transform="translate(0)">
        <g id="Group_1325" data-name="Group 1325" transform="translate(44.761)">
          <path id="Path_292" data-name="Path 292" d="M498.35,146.468c3.986,7.647.1,16.115-7.791,17.742a11.94,11.94,0,0,1-13.8-15.591,19.321,19.321,0,0,1,2.512-5.134l4.98,2.874c-.533,1.193-1.12,2.359-1.554,3.579-.976,2.793-.741,5.423,1.808,7.285a5.557,5.557,0,0,0,7.131-.054,5.627,5.627,0,0,0,1.528-7.683c-3.959-7.258-7.945-14.515-12.193-21.619-5.541-9.282-6.354-19.089-3.037-29.094,2.721-8.206,6.236-16.16,9.743-25.108,2.694,3.471,3.408,6.742,4.511,9.707,3.136,8.4,7.9,16.332,7.773,25.732-.072,5.17-.47,10.231-2.8,14.877l-4.835-2.793c2.729-14.126,1.907-19.9-4.384-30.63-5.794,11.3-8.676,22.054-2.151,33.469C490.035,131.473,494.391,138.867,498.35,146.468Z" transform="translate(-475.972 -73.665)" fill="#8cc63e"/>
        </g>
        <g id="Group_1328" data-name="Group 1328" transform="translate(0 27.473)">
          <g id="Group_1326" data-name="Group 1326">
            <path id="Path_293" data-name="Path 293" d="M434.012,142.406c-8.089-8.668-19.378-10.855-30.35-16.024,10.457,27.684,12.915,34.969,39.054,39.967C443.53,160.492,438.8,147.54,434.012,142.406Zm-20.363-5.215c9.725-.768,21.99,11.072,22.3,21.836C425.281,158.368,417.472,150.613,413.649,137.191Z" transform="translate(-396.585 -126.382)" fill="#fff"/>
            <path id="Path_294" data-name="Path 294" d="M390.082,217.611c14.886,10.43,31.86,10.34,41.757-.208C418.724,207.127,405.149,207.19,390.082,217.611Zm12.365.551c5.07-5.034,14.479-5.26,20.4-.271C415.741,222.628,409.2,221.344,402.447,218.163Z" transform="translate(-390.082 -166.302)" fill="#fff"/>
            <path id="Path_295" data-name="Path 295" d="M436.787,270.06c15.32-4.2,19.758-8.441,21.267-21.357C445.156,250.61,438.649,257.235,436.787,270.06Zm6.752-6.733c.759-5.541,4.1-8.9,9.183-9.237C452.36,259.278,449.269,262.387,443.539,263.327Z" transform="translate(-412.447 -184.957)" fill="#fff"/>
          </g>
          <g id="Group_1327" data-name="Group 1327" transform="translate(68.34)">
            <path id="Path_296" data-name="Path 296" d="M521.311,166.349c26.139-5,28.6-12.283,39.054-39.967-10.972,5.17-22.261,7.357-30.35,16.024C525.224,147.54,520.5,160.492,521.311,166.349Zm6.77-7.321c.307-10.764,12.572-22.6,22.3-21.836C546.555,150.613,538.745,158.368,528.08,159.028Z" transform="translate(-521.219 -126.382)" fill="#fff"/>
            <path id="Path_297" data-name="Path 297" d="M529.789,217.4c9.9,10.548,26.871,10.638,41.757.208C556.479,207.19,542.9,207.127,529.789,217.4Zm8.993.488c5.92-4.989,15.329-4.763,20.4.271C552.43,221.344,545.886,222.628,538.782,217.892Z" transform="translate(-525.323 -166.302)" fill="#fff"/>
            <path id="Path_298" data-name="Path 298" d="M522.4,248.7c1.51,12.916,5.947,17.155,21.267,21.357C541.806,257.235,535.3,250.61,522.4,248.7Zm5.333,5.387c5.079.335,8.424,3.7,9.182,9.237C531.186,262.387,528.095,259.278,527.734,254.09Z" transform="translate(-521.785 -184.957)" fill="#fff"/>
          </g>
        </g>
      </g>
    </g>
    <g id="Group_1331" data-name="Group 1331" transform="translate(375.004 169.066)">
      <path id="Path_299" data-name="Path 299" d="M492.944,256.727c-9.382,8.81-9.463,23.914-.183,37.16C502.035,280.477,502.092,268.4,492.944,256.727Zm-.606,27.655c-2.83-6.008-3.971-11.828.239-18.15C497.018,271.5,496.816,279.871,492.338,284.382Z" transform="translate(-485.854 -256.727)" fill="#fff"/>
    </g>
  </g>
</svg>
